<?xml version="1.0" encoding="utf-8" ?>
<svg baseProfile="full" height="317.7466863033873mm" version="1.1" viewBox="0,0,646,863" width="237.84977908689248mm" xmlns="http://www.w3.org/2000/svg" xmlns:ev="http://www.w3.org/2001/xml-events" xmlns:xlink="http://www.w3.org/1999/xlink"><defs /><path d="M 0.0,0.0 L 0.0,862.0 L 645.0,862.0 L 645.0,0.0 Z M 7.0,7.0 L 527.0,6.0 L 626.0,8.0 L 628.0,44.0 L 630.0,47.0 L 630.0,182.0 L 625.0,537.0 L 626.0,834.0 L 622.0,840.0 L 610.0,842.0 L 330.0,844.0 L 31.0,843.0 L 4.0,841.0 L 5.0,448.0 L 3.0,13.0 Z M 8.0,836.0 L 7.0,837.0 L 7.0,838.0 L 8.0,839.0 Z M 253.0,453.0 L 252.0,453.0 L 253.0,454.0 L 252.0,455.0 L 251.0,455.0 L 251.0,456.0 L 250.0,457.0 L 250.0,458.0 L 249.0,459.0 L 249.0,461.0 L 247.0,463.0 L 247.0,465.0 L 245.0,467.0 L 245.0,468.0 L 246.0,468.0 L 246.0,466.0 L 248.0,464.0 L 250.0,466.0 L 249.0,467.0 L 249.0,468.0 L 250.0,467.0 L 250.0,464.0 L 249.0,463.0 L 250.0,462.0 L 250.0,461.0 L 251.0,460.0 L 252.0,460.0 L 251.0,459.0 L 251.0,457.0 L 252.0,456.0 L 253.0,457.0 L 253.0,458.0 L 253.0,457.0 L 252.0,456.0 L 253.0,455.0 Z M 320.0,322.0 L 319.0,322.0 L 319.0,323.0 Z M 334.0,295.0 L 334.0,297.0 L 333.0,298.0 L 333.0,299.0 L 332.0,300.0 L 332.0,302.0 L 333.0,303.0 L 336.0,303.0 L 337.0,302.0 L 338.0,302.0 L 339.0,301.0 L 339.0,299.0 L 336.0,296.0 L 336.0,295.0 Z M 361.0,278.0 L 350.0,285.0 L 345.0,294.0 L 343.0,292.0 L 343.0,290.0 L 343.0,294.0 L 342.0,295.0 L 341.0,293.0 L 342.0,295.0 L 342.0,302.0 L 341.0,303.0 L 342.0,306.0 L 340.0,307.0 L 339.0,304.0 L 338.0,304.0 L 339.0,305.0 L 333.0,311.0 L 331.0,309.0 L 330.0,312.0 L 333.0,315.0 L 332.0,319.0 L 331.0,320.0 L 329.0,318.0 L 326.0,318.0 L 320.0,326.0 L 318.0,327.0 L 310.0,327.0 L 305.0,333.0 L 301.0,333.0 L 298.0,337.0 L 301.0,342.0 L 299.0,343.0 L 301.0,344.0 L 293.0,351.0 L 290.0,351.0 L 287.0,353.0 L 285.0,353.0 L 274.0,362.0 L 272.0,366.0 L 272.0,369.0 L 267.0,373.0 L 265.0,379.0 L 265.0,384.0 L 264.0,385.0 L 264.0,397.0 L 266.0,398.0 L 266.0,400.0 L 257.0,417.0 L 257.0,422.0 L 254.0,431.0 L 254.0,440.0 L 251.0,444.0 L 252.0,447.0 L 252.0,445.0 L 253.0,444.0 L 254.0,445.0 L 254.0,449.0 L 256.0,452.0 L 255.0,455.0 L 258.0,458.0 L 257.0,459.0 L 258.0,465.0 L 253.0,472.0 L 251.0,477.0 L 248.0,480.0 L 247.0,479.0 L 248.0,474.0 L 246.0,476.0 L 245.0,475.0 L 246.0,470.0 L 244.0,473.0 L 246.0,478.0 L 244.0,483.0 L 246.0,485.0 L 239.0,498.0 L 239.0,500.0 L 234.0,507.0 L 232.0,513.0 L 240.0,519.0 L 245.0,515.0 L 250.0,518.0 L 252.0,516.0 L 254.0,518.0 L 253.0,519.0 L 257.0,522.0 L 259.0,522.0 L 262.0,519.0 L 259.0,517.0 L 259.0,514.0 L 261.0,512.0 L 262.0,513.0 L 265.0,513.0 L 266.0,511.0 L 260.0,506.0 L 261.0,504.0 L 258.0,501.0 L 258.0,499.0 L 259.0,498.0 L 264.0,499.0 L 270.0,504.0 L 271.0,507.0 L 270.0,509.0 L 270.0,514.0 L 271.0,515.0 L 270.0,560.0 L 274.0,565.0 L 275.0,561.0 L 277.0,560.0 L 278.0,561.0 L 277.0,562.0 L 278.0,564.0 L 276.0,566.0 L 281.0,563.0 L 282.0,555.0 L 284.0,553.0 L 284.0,551.0 L 286.0,548.0 L 285.0,546.0 L 285.0,538.0 L 287.0,534.0 L 287.0,529.0 L 289.0,528.0 L 290.0,525.0 L 289.0,522.0 L 289.0,513.0 L 293.0,510.0 L 293.0,504.0 L 294.0,503.0 L 295.0,504.0 L 297.0,503.0 L 298.0,505.0 L 307.0,510.0 L 329.0,536.0 L 332.0,537.0 L 337.0,536.0 L 338.0,537.0 L 337.0,539.0 L 338.0,540.0 L 338.0,547.0 L 340.0,551.0 L 341.0,558.0 L 343.0,559.0 L 343.0,568.0 L 344.0,569.0 L 343.0,572.0 L 344.0,575.0 L 344.0,618.0 L 343.0,619.0 L 343.0,633.0 L 342.0,634.0 L 342.0,641.0 L 341.0,642.0 L 342.0,645.0 L 341.0,647.0 L 341.0,671.0 L 340.0,672.0 L 341.0,674.0 L 341.0,681.0 L 348.0,697.0 L 352.0,702.0 L 353.0,705.0 L 360.0,712.0 L 366.0,721.0 L 376.0,730.0 L 382.0,732.0 L 388.0,732.0 L 397.0,727.0 L 403.0,719.0 L 406.0,712.0 L 407.0,702.0 L 408.0,701.0 L 407.0,668.0 L 406.0,667.0 L 406.0,662.0 L 404.0,658.0 L 405.0,655.0 L 405.0,644.0 L 404.0,643.0 L 404.0,635.0 L 403.0,634.0 L 403.0,628.0 L 401.0,621.0 L 401.0,613.0 L 399.0,606.0 L 398.0,589.0 L 397.0,588.0 L 397.0,583.0 L 396.0,582.0 L 394.0,567.0 L 393.0,566.0 L 393.0,557.0 L 392.0,556.0 L 392.0,548.0 L 391.0,547.0 L 391.0,535.0 L 390.0,534.0 L 391.0,503.0 L 392.0,502.0 L 392.0,467.0 L 391.0,466.0 L 391.0,455.0 L 390.0,454.0 L 390.0,445.0 L 389.0,444.0 L 388.0,431.0 L 386.0,424.0 L 386.0,417.0 L 385.0,416.0 L 385.0,410.0 L 384.0,409.0 L 384.0,403.0 L 383.0,402.0 L 383.0,396.0 L 382.0,395.0 L 382.0,387.0 L 381.0,386.0 L 381.0,377.0 L 380.0,376.0 L 380.0,369.0 L 379.0,368.0 L 379.0,362.0 L 386.0,358.0 L 388.0,358.0 L 389.0,356.0 L 387.0,353.0 L 386.0,346.0 L 381.0,334.0 L 381.0,308.0 L 382.0,307.0 L 382.0,302.0 L 381.0,301.0 L 380.0,291.0 L 373.0,280.0 L 369.0,278.0 Z M 270.0,556.0 L 271.0,555.0 L 272.0,555.0 L 273.0,556.0 L 273.0,558.0 L 272.0,559.0 L 271.0,559.0 L 270.0,558.0 Z M 273.0,547.0 L 274.0,548.0 L 274.0,552.0 L 272.0,554.0 L 271.0,553.0 L 271.0,551.0 L 272.0,550.0 L 272.0,548.0 Z M 254.0,517.0 L 255.0,516.0 L 256.0,517.0 L 255.0,518.0 Z M 249.0,512.0 L 250.0,511.0 L 251.0,512.0 L 250.0,513.0 Z M 240.0,511.0 L 241.0,510.0 L 242.0,511.0 L 241.0,512.0 Z M 279.0,510.0 L 280.0,509.0 L 281.0,510.0 L 281.0,511.0 L 280.0,512.0 L 279.0,511.0 Z M 241.0,509.0 L 242.0,508.0 L 243.0,509.0 L 243.0,510.0 L 242.0,511.0 L 241.0,510.0 Z M 256.0,508.0 L 257.0,507.0 L 258.0,508.0 L 257.0,509.0 Z M 243.0,506.0 L 244.0,505.0 L 245.0,506.0 L 244.0,507.0 Z M 240.0,506.0 L 241.0,505.0 L 242.0,506.0 L 242.0,507.0 L 241.0,508.0 L 240.0,507.0 Z M 286.0,503.0 L 287.0,504.0 L 287.0,506.0 L 286.0,507.0 L 285.0,506.0 L 285.0,504.0 Z M 293.0,501.0 L 294.0,500.0 L 295.0,500.0 L 296.0,501.0 L 296.0,502.0 L 295.0,503.0 L 294.0,503.0 L 293.0,502.0 Z M 282.0,499.0 L 283.0,500.0 L 283.0,502.0 L 282.0,503.0 L 282.0,504.0 L 281.0,505.0 L 280.0,504.0 L 280.0,502.0 L 281.0,501.0 L 281.0,500.0 Z M 246.0,500.0 L 247.0,499.0 L 248.0,500.0 L 248.0,501.0 L 247.0,502.0 L 246.0,501.0 Z M 286.0,498.0 L 287.0,497.0 L 288.0,498.0 L 288.0,499.0 L 287.0,500.0 L 286.0,499.0 Z M 281.0,498.0 L 282.0,497.0 L 283.0,498.0 L 282.0,499.0 Z M 244.0,498.0 L 245.0,497.0 L 246.0,498.0 L 245.0,499.0 Z M 245.0,497.0 L 246.0,496.0 L 247.0,497.0 L 246.0,498.0 Z M 298.0,493.0 L 299.0,494.0 L 299.0,499.0 L 297.0,501.0 L 296.0,500.0 L 296.0,499.0 L 297.0,498.0 L 297.0,494.0 Z M 283.0,492.0 L 284.0,493.0 L 284.0,495.0 L 283.0,496.0 L 282.0,495.0 L 282.0,493.0 Z M 245.0,493.0 L 246.0,492.0 L 247.0,493.0 L 246.0,494.0 Z M 250.0,492.0 L 251.0,491.0 L 252.0,492.0 L 251.0,493.0 Z M 251.0,491.0 L 252.0,490.0 L 253.0,491.0 L 252.0,492.0 Z M 248.0,491.0 L 249.0,490.0 L 250.0,491.0 L 249.0,492.0 Z M 249.0,489.0 L 250.0,488.0 L 251.0,489.0 L 251.0,490.0 L 250.0,491.0 L 249.0,490.0 Z M 278.0,486.0 L 279.0,485.0 L 280.0,485.0 L 281.0,486.0 L 281.0,488.0 L 280.0,489.0 L 278.0,487.0 Z M 301.0,482.0 L 302.0,483.0 L 302.0,484.0 L 301.0,485.0 L 301.0,489.0 L 300.0,490.0 L 300.0,493.0 L 299.0,494.0 L 298.0,493.0 L 298.0,488.0 L 299.0,487.0 L 299.0,483.0 L 300.0,482.0 Z M 278.0,483.0 L 280.0,481.0 L 281.0,481.0 L 282.0,482.0 L 283.0,482.0 L 284.0,483.0 L 282.0,485.0 L 280.0,485.0 Z M 300.0,481.0 L 301.0,480.0 L 302.0,481.0 L 301.0,482.0 Z M 247.0,479.0 L 248.0,480.0 L 248.0,482.0 L 246.0,484.0 L 245.0,483.0 L 245.0,482.0 L 246.0,481.0 L 246.0,480.0 Z M 324.0,476.0 L 325.0,477.0 L 325.0,485.0 L 324.0,486.0 L 325.0,487.0 L 324.0,488.0 L 324.0,493.0 L 323.0,494.0 L 323.0,495.0 L 322.0,496.0 L 320.0,494.0 L 320.0,489.0 L 321.0,488.0 L 321.0,485.0 L 322.0,484.0 L 322.0,481.0 L 323.0,480.0 L 323.0,477.0 Z M 304.0,473.0 L 305.0,474.0 L 305.0,478.0 L 304.0,479.0 L 303.0,479.0 L 302.0,478.0 L 302.0,477.0 L 303.0,476.0 L 303.0,474.0 Z M 268.0,472.0 L 269.0,473.0 L 269.0,476.0 L 270.0,477.0 L 270.0,481.0 L 271.0,482.0 L 271.0,490.0 L 272.0,491.0 L 272.0,492.0 L 271.0,493.0 L 270.0,492.0 L 267.0,492.0 L 265.0,490.0 L 264.0,490.0 L 261.0,487.0 L 261.0,482.0 L 262.0,481.0 L 262.0,480.0 L 264.0,478.0 L 264.0,477.0 L 265.0,476.0 L 265.0,475.0 Z M 262.0,471.0 L 263.0,470.0 L 264.0,471.0 L 263.0,472.0 Z M 304.0,470.0 L 305.0,469.0 L 306.0,470.0 L 305.0,471.0 Z M 279.0,470.0 L 280.0,469.0 L 281.0,470.0 L 280.0,471.0 Z M 264.0,469.0 L 265.0,468.0 L 266.0,469.0 L 265.0,470.0 Z M 265.0,468.0 L 266.0,467.0 L 267.0,468.0 L 266.0,469.0 Z M 267.0,467.0 L 268.0,466.0 L 269.0,467.0 L 268.0,468.0 Z M 275.0,464.0 L 276.0,463.0 L 277.0,463.0 L 278.0,464.0 L 277.0,465.0 L 276.0,465.0 Z M 271.0,464.0 L 272.0,463.0 L 273.0,463.0 L 274.0,464.0 L 273.0,465.0 L 272.0,465.0 Z M 274.0,463.0 L 275.0,462.0 L 276.0,463.0 L 275.0,464.0 Z M 269.0,463.0 L 270.0,462.0 L 271.0,463.0 L 270.0,464.0 Z M 282.0,462.0 L 283.0,461.0 L 284.0,462.0 L 283.0,463.0 Z M 277.0,462.0 L 278.0,461.0 L 279.0,462.0 L 278.0,463.0 Z M 259.0,462.0 L 260.0,461.0 L 261.0,461.0 L 262.0,462.0 L 261.0,463.0 L 260.0,463.0 Z M 275.0,461.0 L 276.0,460.0 L 277.0,461.0 L 276.0,462.0 Z M 266.0,461.0 L 267.0,460.0 L 268.0,461.0 L 267.0,462.0 Z M 269.0,460.0 L 270.0,459.0 L 271.0,459.0 L 272.0,460.0 L 274.0,460.0 L 275.0,461.0 L 275.0,462.0 L 274.0,463.0 L 273.0,463.0 L 272.0,462.0 L 270.0,462.0 L 269.0,461.0 Z M 258.0,460.0 L 259.0,459.0 L 260.0,460.0 L 259.0,461.0 Z M 282.0,459.0 L 283.0,458.0 L 284.0,459.0 L 283.0,460.0 Z M 274.0,459.0 L 275.0,458.0 L 276.0,459.0 L 276.0,460.0 L 275.0,461.0 L 274.0,460.0 Z M 285.0,458.0 L 286.0,457.0 L 287.0,458.0 L 286.0,459.0 Z M 292.0,458.0 L 291.0,459.0 L 290.0,459.0 L 290.0,461.0 L 287.0,464.0 L 286.0,464.0 L 285.0,465.0 L 284.0,465.0 L 283.0,466.0 L 281.0,466.0 L 280.0,467.0 L 278.0,467.0 L 277.0,468.0 L 276.0,468.0 L 275.0,469.0 L 273.0,469.0 L 272.0,470.0 L 271.0,470.0 L 270.0,471.0 L 268.0,469.0 L 268.0,468.0 L 269.0,467.0 L 272.0,467.0 L 273.0,466.0 L 274.0,466.0 L 274.0,465.0 L 275.0,464.0 L 276.0,465.0 L 277.0,465.0 L 278.0,464.0 L 280.0,464.0 L 281.0,463.0 L 283.0,463.0 L 284.0,462.0 L 285.0,462.0 L 285.0,461.0 L 286.0,460.0 L 288.0,460.0 L 287.0,459.0 L 288.0,458.0 L 288.0,457.0 L 289.0,456.0 L 290.0,456.0 Z M 284.0,457.0 L 285.0,456.0 L 286.0,457.0 L 285.0,458.0 Z M 270.0,457.0 L 271.0,456.0 L 272.0,457.0 L 271.0,458.0 Z M 283.0,456.0 L 284.0,455.0 L 285.0,456.0 L 284.0,457.0 Z M 274.0,456.0 L 275.0,455.0 L 276.0,456.0 L 275.0,457.0 Z M 286.0,455.0 L 287.0,454.0 L 288.0,454.0 L 289.0,455.0 L 289.0,456.0 L 288.0,457.0 Z M 267.0,455.0 L 268.0,454.0 L 269.0,455.0 L 268.0,456.0 Z M 265.0,454.0 L 266.0,453.0 L 267.0,453.0 L 268.0,454.0 L 267.0,455.0 L 266.0,455.0 Z M 288.0,453.0 L 289.0,452.0 L 290.0,452.0 L 293.0,455.0 L 293.0,456.0 L 292.0,457.0 L 290.0,455.0 L 289.0,455.0 L 288.0,454.0 Z M 279.0,454.0 L 280.0,453.0 L 281.0,453.0 L 282.0,452.0 L 283.0,453.0 L 283.0,454.0 L 284.0,455.0 L 283.0,456.0 L 282.0,456.0 L 281.0,455.0 L 280.0,455.0 Z M 276.0,453.0 L 277.0,452.0 L 278.0,452.0 L 279.0,453.0 L 279.0,454.0 L 278.0,455.0 Z M 273.0,453.0 L 274.0,452.0 L 275.0,452.0 L 276.0,453.0 L 275.0,454.0 L 274.0,454.0 Z M 264.0,453.0 L 265.0,452.0 L 266.0,453.0 L 265.0,454.0 Z M 259.0,453.0 L 260.0,452.0 L 262.0,454.0 L 261.0,455.0 L 260.0,455.0 L 259.0,454.0 Z M 257.0,453.0 L 258.0,452.0 L 259.0,453.0 L 258.0,454.0 Z M 294.0,452.0 L 295.0,451.0 L 296.0,451.0 L 297.0,452.0 L 296.0,453.0 L 295.0,453.0 Z M 271.0,451.0 L 272.0,450.0 L 273.0,451.0 L 272.0,452.0 Z M 270.0,450.0 L 271.0,449.0 L 272.0,450.0 L 271.0,451.0 Z M 259.0,450.0 L 260.0,449.0 L 261.0,449.0 L 262.0,450.0 L 261.0,451.0 L 260.0,451.0 Z M 292.0,448.0 L 293.0,449.0 L 294.0,449.0 L 295.0,450.0 L 295.0,451.0 L 294.0,452.0 L 294.0,453.0 L 295.0,453.0 L 296.0,454.0 L 295.0,455.0 L 293.0,455.0 L 290.0,452.0 L 290.0,451.0 L 291.0,450.0 L 292.0,451.0 L 291.0,450.0 L 291.0,449.0 Z M 268.0,449.0 L 269.0,448.0 L 270.0,449.0 L 269.0,450.0 Z M 294.0,448.0 L 295.0,447.0 L 296.0,447.0 L 299.0,450.0 L 298.0,451.0 L 297.0,451.0 Z M 261.0,448.0 L 262.0,447.0 L 263.0,447.0 L 264.0,448.0 L 263.0,449.0 L 262.0,449.0 Z M 298.0,447.0 L 299.0,446.0 L 300.0,447.0 L 301.0,447.0 L 302.0,448.0 L 300.0,450.0 L 298.0,448.0 Z M 290.0,447.0 L 291.0,446.0 L 292.0,447.0 L 291.0,448.0 Z M 289.0,446.0 L 290.0,447.0 L 290.0,448.0 L 291.0,449.0 L 291.0,450.0 L 287.0,454.0 L 284.0,454.0 L 283.0,453.0 L 284.0,452.0 L 286.0,452.0 L 288.0,450.0 L 288.0,447.0 Z M 300.0,446.0 L 301.0,445.0 L 302.0,445.0 L 303.0,446.0 L 303.0,447.0 L 302.0,448.0 Z M 299.0,445.0 L 300.0,444.0 L 301.0,445.0 L 300.0,446.0 Z M 302.0,444.0 L 303.0,443.0 L 304.0,443.0 L 305.0,444.0 L 304.0,445.0 L 303.0,445.0 Z M 290.0,443.0 L 291.0,442.0 L 292.0,443.0 L 292.0,444.0 L 291.0,445.0 L 290.0,444.0 Z M 252.0,443.0 L 253.0,442.0 L 254.0,443.0 L 253.0,444.0 Z M 304.0,442.0 L 305.0,441.0 L 306.0,442.0 L 305.0,443.0 Z M 299.0,442.0 L 300.0,441.0 L 301.0,441.0 L 302.0,442.0 L 302.0,443.0 L 301.0,444.0 Z M 282.0,442.0 L 283.0,441.0 L 284.0,442.0 L 285.0,442.0 L 286.0,443.0 L 287.0,443.0 L 288.0,444.0 L 288.0,445.0 L 287.0,446.0 L 286.0,446.0 L 285.0,445.0 L 284.0,445.0 L 282.0,443.0 Z M 306.0,441.0 L 307.0,440.0 L 308.0,441.0 L 307.0,442.0 Z M 303.0,441.0 L 304.0,440.0 L 305.0,441.0 L 304.0,442.0 Z M 301.0,440.0 L 302.0,439.0 L 303.0,440.0 L 302.0,441.0 Z M 290.0,440.0 L 291.0,439.0 L 292.0,440.0 L 291.0,441.0 Z M 337.0,439.0 L 338.0,438.0 L 339.0,439.0 L 338.0,440.0 Z M 336.0,438.0 L 337.0,439.0 L 337.0,440.0 L 338.0,441.0 L 338.0,442.0 L 339.0,443.0 L 337.0,445.0 L 337.0,446.0 L 339.0,444.0 L 340.0,445.0 L 340.0,446.0 L 339.0,447.0 L 341.0,449.0 L 341.0,450.0 L 342.0,451.0 L 342.0,457.0 L 341.0,458.0 L 339.0,458.0 L 337.0,456.0 L 337.0,455.0 L 331.0,449.0 L 331.0,447.0 L 332.0,446.0 L 332.0,445.0 L 333.0,444.0 L 333.0,443.0 L 334.0,442.0 L 334.0,441.0 L 335.0,440.0 L 335.0,439.0 Z M 299.0,439.0 L 300.0,438.0 L 301.0,439.0 L 300.0,440.0 Z M 286.0,439.0 L 287.0,438.0 L 288.0,439.0 L 287.0,440.0 Z M 262.0,439.0 L 263.0,438.0 L 264.0,439.0 L 263.0,440.0 Z M 256.0,439.0 L 257.0,438.0 L 258.0,439.0 L 257.0,440.0 Z M 302.0,438.0 L 303.0,437.0 L 304.0,437.0 L 305.0,438.0 L 305.0,439.0 L 304.0,440.0 Z M 291.0,438.0 L 292.0,437.0 L 293.0,437.0 L 294.0,438.0 L 293.0,439.0 L 292.0,439.0 Z M 276.0,437.0 L 277.0,436.0 L 278.0,437.0 L 277.0,438.0 Z M 305.0,436.0 L 306.0,435.0 L 307.0,435.0 L 308.0,436.0 L 307.0,437.0 L 306.0,437.0 Z M 299.0,436.0 L 300.0,435.0 L 301.0,435.0 L 302.0,436.0 L 301.0,437.0 L 300.0,437.0 Z M 293.0,436.0 L 294.0,435.0 L 295.0,436.0 L 295.0,437.0 L 294.0,438.0 L 293.0,437.0 Z M 337.0,434.0 L 338.0,435.0 L 338.0,438.0 L 337.0,439.0 L 336.0,438.0 L 336.0,435.0 Z M 309.0,433.0 L 310.0,434.0 L 310.0,436.0 L 309.0,437.0 L 308.0,436.0 L 308.0,434.0 Z M 301.0,434.0 L 302.0,433.0 L 303.0,433.0 L 304.0,434.0 L 303.0,435.0 L 302.0,435.0 Z M 296.0,434.0 L 297.0,433.0 L 298.0,433.0 L 299.0,434.0 L 299.0,435.0 L 298.0,436.0 L 297.0,436.0 L 296.0,435.0 Z M 275.0,434.0 L 276.0,433.0 L 277.0,434.0 L 276.0,435.0 Z M 262.0,434.0 L 263.0,433.0 L 264.0,433.0 L 265.0,434.0 L 264.0,435.0 L 263.0,435.0 Z M 306.0,433.0 L 307.0,432.0 L 308.0,433.0 L 308.0,434.0 L 307.0,435.0 L 306.0,434.0 Z M 299.0,433.0 L 300.0,432.0 L 301.0,432.0 L 302.0,433.0 L 301.0,434.0 L 300.0,434.0 Z M 338.0,431.0 L 339.0,432.0 L 339.0,434.0 L 338.0,435.0 L 337.0,434.0 L 337.0,432.0 Z M 309.0,432.0 L 310.0,431.0 L 311.0,432.0 L 311.0,433.0 L 310.0,434.0 L 309.0,433.0 Z M 295.0,431.0 L 296.0,432.0 L 296.0,433.0 L 295.0,434.0 L 294.0,434.0 L 293.0,433.0 Z M 267.0,432.0 L 268.0,431.0 L 269.0,431.0 L 273.0,435.0 L 273.0,436.0 L 276.0,439.0 L 277.0,439.0 L 278.0,440.0 L 279.0,440.0 L 280.0,441.0 L 281.0,441.0 L 282.0,442.0 L 282.0,443.0 L 281.0,444.0 L 279.0,444.0 L 278.0,443.0 L 277.0,443.0 L 271.0,437.0 L 271.0,436.0 Z M 280.0,433.0 L 282.0,431.0 L 284.0,431.0 L 285.0,430.0 L 286.0,431.0 L 287.0,431.0 L 292.0,436.0 L 292.0,437.0 L 291.0,438.0 L 288.0,438.0 L 287.0,437.0 L 288.0,436.0 L 288.0,435.0 L 287.0,436.0 L 285.0,436.0 L 283.0,434.0 L 281.0,434.0 Z M 337.0,430.0 L 338.0,429.0 L 339.0,430.0 L 338.0,431.0 Z M 304.0,430.0 L 305.0,429.0 L 306.0,429.0 L 307.0,430.0 L 306.0,431.0 L 305.0,431.0 Z M 300.0,430.0 L 301.0,429.0 L 302.0,430.0 L 301.0,431.0 Z M 295.0,430.0 L 296.0,429.0 L 297.0,429.0 L 299.0,431.0 L 298.0,432.0 L 297.0,432.0 Z M 279.0,430.0 L 280.0,429.0 L 281.0,430.0 L 280.0,431.0 Z M 282.0,429.0 L 283.0,428.0 L 284.0,429.0 L 283.0,430.0 Z M 274.0,429.0 L 275.0,428.0 L 279.0,432.0 L 278.0,433.0 L 277.0,433.0 L 274.0,430.0 Z M 306.0,428.0 L 307.0,427.0 L 308.0,427.0 L 310.0,429.0 L 310.0,430.0 L 309.0,431.0 Z M 298.0,428.0 L 299.0,427.0 L 301.0,429.0 L 300.0,430.0 L 299.0,430.0 L 298.0,429.0 Z M 336.0,427.0 L 337.0,426.0 L 338.0,427.0 L 338.0,428.0 L 337.0,429.0 L 336.0,428.0 Z M 300.0,427.0 L 301.0,426.0 L 302.0,426.0 L 303.0,427.0 L 302.0,428.0 L 301.0,428.0 Z M 295.0,427.0 L 296.0,426.0 L 297.0,426.0 L 298.0,427.0 L 297.0,428.0 L 296.0,428.0 Z M 271.0,427.0 L 272.0,426.0 L 274.0,426.0 L 275.0,427.0 L 273.0,429.0 Z M 267.0,427.0 L 268.0,426.0 L 269.0,427.0 L 268.0,428.0 Z M 304.0,426.0 L 305.0,425.0 L 307.0,427.0 L 306.0,428.0 L 305.0,428.0 L 304.0,427.0 Z M 276.0,426.0 L 277.0,425.0 L 278.0,425.0 L 279.0,426.0 L 278.0,427.0 L 277.0,427.0 Z M 298.0,425.0 L 299.0,424.0 L 300.0,425.0 L 299.0,426.0 Z M 300.0,424.0 L 301.0,423.0 L 302.0,423.0 L 303.0,424.0 L 302.0,425.0 L 301.0,425.0 Z M 295.0,424.0 L 296.0,423.0 L 297.0,424.0 L 296.0,425.0 Z M 269.0,422.0 L 270.0,421.0 L 271.0,421.0 L 272.0,420.0 L 273.0,420.0 L 274.0,421.0 L 274.0,422.0 L 275.0,423.0 L 274.0,424.0 L 273.0,424.0 L 272.0,423.0 L 270.0,423.0 Z M 294.0,420.0 L 295.0,419.0 L 296.0,420.0 L 296.0,421.0 L 295.0,422.0 L 294.0,421.0 Z M 296.0,419.0 L 297.0,418.0 L 298.0,418.0 L 299.0,419.0 L 298.0,420.0 L 297.0,420.0 Z M 300.0,418.0 L 301.0,417.0 L 302.0,418.0 L 301.0,419.0 Z M 279.0,418.0 L 280.0,417.0 L 284.0,421.0 L 285.0,421.0 L 287.0,423.0 L 288.0,423.0 L 289.0,424.0 L 290.0,424.0 L 292.0,426.0 L 291.0,427.0 L 290.0,427.0 L 289.0,426.0 L 288.0,426.0 L 287.0,425.0 L 286.0,425.0 L 285.0,424.0 L 284.0,424.0 L 279.0,419.0 Z M 294.0,417.0 L 295.0,416.0 L 296.0,417.0 L 295.0,418.0 Z M 297.0,416.0 L 298.0,415.0 L 299.0,416.0 L 298.0,417.0 Z M 293.0,416.0 L 294.0,415.0 L 295.0,416.0 L 294.0,417.0 Z M 261.0,415.0 L 262.0,414.0 L 263.0,415.0 L 262.0,416.0 Z M 318.0,414.0 L 319.0,413.0 L 320.0,414.0 L 319.0,415.0 Z M 296.0,414.0 L 297.0,413.0 L 298.0,414.0 L 297.0,415.0 Z M 269.0,413.0 L 270.0,412.0 L 271.0,413.0 L 270.0,414.0 Z M 290.0,411.0 L 291.0,410.0 L 292.0,411.0 L 291.0,412.0 Z M 288.0,409.0 L 289.0,408.0 L 290.0,409.0 L 289.0,410.0 Z M 334.0,406.0 L 335.0,407.0 L 335.0,410.0 L 334.0,411.0 L 334.0,412.0 L 335.0,413.0 L 335.0,416.0 L 336.0,417.0 L 336.0,423.0 L 337.0,424.0 L 337.0,425.0 L 336.0,426.0 L 331.0,421.0 L 330.0,421.0 L 328.0,419.0 L 327.0,419.0 L 326.0,418.0 L 329.0,415.0 L 329.0,414.0 L 330.0,413.0 L 330.0,412.0 L 332.0,410.0 L 332.0,409.0 L 333.0,408.0 L 333.0,407.0 Z M 334.0,405.0 L 335.0,404.0 L 336.0,405.0 L 336.0,406.0 L 335.0,407.0 L 334.0,406.0 Z M 288.0,405.0 L 289.0,404.0 L 291.0,406.0 L 290.0,407.0 L 289.0,407.0 L 288.0,406.0 Z M 265.0,401.0 L 266.0,400.0 L 267.0,401.0 L 269.0,401.0 L 270.0,402.0 L 270.0,403.0 L 271.0,404.0 L 271.0,406.0 L 270.0,407.0 L 269.0,406.0 L 268.0,406.0 L 266.0,404.0 L 266.0,403.0 L 265.0,402.0 Z M 329.0,378.0 L 330.0,377.0 L 331.0,378.0 L 331.0,379.0 L 330.0,380.0 L 329.0,379.0 Z M 313.0,358.0 L 314.0,357.0 L 315.0,357.0 L 316.0,358.0 L 315.0,359.0 L 314.0,359.0 Z M 311.0,357.0 L 312.0,356.0 L 313.0,357.0 L 312.0,358.0 Z M 314.0,361.0 L 315.0,362.0 L 315.0,363.0 L 316.0,363.0 L 317.0,364.0 L 317.0,365.0 L 316.0,366.0 L 316.0,370.0 L 317.0,370.0 L 318.0,371.0 L 321.0,371.0 L 322.0,372.0 L 322.0,374.0 L 323.0,375.0 L 323.0,376.0 L 324.0,377.0 L 324.0,378.0 L 325.0,379.0 L 325.0,393.0 L 324.0,394.0 L 324.0,395.0 L 322.0,397.0 L 322.0,398.0 L 320.0,400.0 L 320.0,401.0 L 318.0,403.0 L 317.0,403.0 L 316.0,404.0 L 314.0,404.0 L 313.0,405.0 L 311.0,405.0 L 310.0,406.0 L 308.0,406.0 L 307.0,405.0 L 307.0,404.0 L 305.0,402.0 L 304.0,402.0 L 303.0,401.0 L 302.0,401.0 L 299.0,398.0 L 296.0,398.0 L 294.0,396.0 L 292.0,396.0 L 291.0,397.0 L 281.0,397.0 L 280.0,398.0 L 279.0,398.0 L 278.0,399.0 L 277.0,399.0 L 278.0,399.0 L 279.0,400.0 L 278.0,401.0 L 277.0,401.0 L 275.0,403.0 L 274.0,402.0 L 274.0,400.0 L 273.0,399.0 L 273.0,396.0 L 272.0,395.0 L 272.0,380.0 L 273.0,379.0 L 273.0,376.0 L 274.0,375.0 L 274.0,373.0 L 275.0,372.0 L 275.0,369.0 L 276.0,368.0 L 276.0,366.0 L 279.0,363.0 L 280.0,363.0 L 281.0,364.0 L 282.0,363.0 L 283.0,363.0 L 284.0,362.0 L 285.0,363.0 L 285.0,366.0 L 284.0,367.0 L 284.0,368.0 L 285.0,369.0 L 285.0,371.0 L 286.0,372.0 L 286.0,373.0 L 293.0,380.0 L 294.0,380.0 L 295.0,381.0 L 297.0,381.0 L 298.0,382.0 L 301.0,382.0 L 302.0,381.0 L 305.0,381.0 L 306.0,380.0 L 307.0,380.0 L 308.0,379.0 L 309.0,379.0 L 314.0,374.0 L 314.0,373.0 L 315.0,372.0 L 314.0,371.0 L 309.0,371.0 L 304.0,376.0 L 301.0,376.0 L 300.0,377.0 L 298.0,375.0 L 300.0,373.0 L 300.0,372.0 L 301.0,371.0 L 301.0,368.0 L 300.0,367.0 L 301.0,366.0 L 301.0,365.0 L 302.0,364.0 L 302.0,360.0 L 300.0,360.0 L 297.0,363.0 L 296.0,362.0 L 296.0,361.0 L 295.0,361.0 L 295.0,362.0 L 293.0,364.0 L 293.0,368.0 L 292.0,369.0 L 291.0,368.0 L 291.0,363.0 L 293.0,361.0 L 293.0,359.0 L 294.0,358.0 L 295.0,358.0 L 297.0,356.0 L 300.0,356.0 L 301.0,357.0 L 302.0,357.0 L 304.0,359.0 L 308.0,359.0 L 309.0,360.0 L 312.0,360.0 L 313.0,361.0 Z M 309.0,356.0 L 310.0,355.0 L 311.0,356.0 L 310.0,357.0 Z M 313.0,351.0 L 314.0,350.0 L 317.0,350.0 L 322.0,355.0 L 322.0,356.0 L 321.0,357.0 L 318.0,354.0 L 317.0,354.0 L 315.0,352.0 L 314.0,352.0 Z M 300.0,343.0 L 301.0,342.0 L 302.0,342.0 L 303.0,343.0 L 302.0,344.0 L 301.0,344.0 Z M 339.0,320.0 L 340.0,319.0 L 341.0,320.0 L 340.0,321.0 Z M 338.0,311.0 L 339.0,310.0 L 340.0,311.0 L 339.0,312.0 Z M 331.0,311.0 L 332.0,310.0 L 333.0,311.0 L 333.0,312.0 L 332.0,313.0 L 331.0,312.0 Z M 343.0,297.0 L 344.0,298.0 L 344.0,303.0 L 343.0,304.0 L 342.0,303.0 L 342.0,298.0 Z M 343.0,295.0 L 344.0,294.0 L 345.0,295.0 L 345.0,296.0 L 344.0,297.0 L 343.0,296.0 Z M 8.0,15.0 L 7.0,16.0 L 7.0,19.0 L 7.0,16.0 Z " fill="black" fill-rule="evenodd" stroke="none" /></svg>